<svg
  xmlns="http://www.w3.org/2000/svg"
  viewBox="0 0 64 64"
  role="img"
  aria-label="Abdul Mohammad monogram"
>
  <rect width="64" height="64" rx="10" fill="#002676" />
  <path
    d="M26.13 0V41.29L129.31 54.79H154.07L247.38 41.29V0ZM37.49 619.37V660.66H163.77L164.5 604.65H153.03ZM114.63 0V655.48H160.87L166.45 333.4V0ZM363.55 0 137.13 608.5H127.75V660.66H261.3L452.08 145.09H424.2L430.33 162.82L608.12 660.66H655.63V614.96H644.65L634.13 585.92L426.12 0ZM542.05 0V41.29L660.09 56.01H705.88L835.7 41.29V0ZM613.61 0Q615.61 47.91 616.16 99.32T617.04 201.94T617.37 299.68L619.19 660.66H760.14Q758.84 613.45 757.84 561.53T756.76 456.76T756.68 351.72V310.55Q756.68 258.9 756.76 205.15T757.84 99.64T760.14 0ZM677.6 604.65V660.66H833.89V619.37L705.88 604.65Z"
    fill="#FFFFFF"
    transform="translate(18.35 49.5) scale(.053 -.053)"
  />
  <path
    d="M8.92 0V41.29L101.92 54.79H120.37L214.94 41.29V0ZM67.25 0 289.77 663.5H373.28L595.82 0H450.24L275.82 551.12H294.33L289.63 537.07L116.11 0ZM166.79 205.33V251.87H452.19V205.33ZM353.3 0V40.2L467.99 54.92H529.15L643.33 40.2V0Z"
    fill="#FDB515"
    transform="translate(2.75 49.5) scale(.053 -.053)"
  />
</svg>
